<svg width="512" height="512" viewBox="0 0 512 512" fill="none" xmlns="http://www.w3.org/2000/svg">
<g clip-path="url(#clip0_210_129)">
<circle cx="256" cy="256" r="256" fill="#0C0C0C"/>
<path d="M122.172 300.047C121.703 298.641 121.469 296.953 121.469 294.984C121.469 293.297 121.797 291.703 122.453 290.203C124.141 286.547 126.906 284.719 130.75 284.719C134.312 284.812 137.734 286.875 141.016 290.906C142.047 292.219 143.031 293.438 143.969 294.562C157.094 310.688 169.656 318.75 181.656 318.75C193.469 318.75 203.594 314.484 212.031 305.953C220.281 297.516 224.406 287.484 224.406 275.859C224.312 265.828 221.688 257.297 216.531 250.266C212.406 244.547 205.094 238.641 194.594 232.547C183.531 226.078 176.922 222.094 174.766 220.594C169.891 217.219 165.766 213.75 162.391 210.188C153.859 201.188 149.594 190.078 149.594 176.859C149.594 175.172 149.688 173.391 149.875 171.516C151.188 157.266 157.047 145.266 167.453 135.516C178.141 125.672 190.703 120.75 205.141 120.75C211.328 120.75 217.375 121.734 223.281 123.703C235.562 127.922 245.031 135.234 251.688 145.641C252.812 148.453 253.375 150.516 253.375 151.828C253.375 153.516 252.906 155.203 251.969 156.891C249.906 160.359 246.953 162.094 243.109 162.094C239.734 162.094 237.344 161.203 235.938 159.422C226.375 147.891 216.109 142.078 205.141 141.984C196.516 141.984 188.875 145.125 182.219 151.406C174.812 158.438 171.109 167.016 171.109 177.141C171.109 183.422 173.031 189.047 176.875 194.016C180.344 198.516 187.141 203.812 197.266 209.906C208.328 216.469 216.578 221.953 222.016 226.359C239.453 240.422 248.172 256.922 248.172 275.859C248.172 280.078 247.75 284.297 246.906 288.516C243.812 303.422 236.078 315.844 223.703 325.781C211.141 335.906 197.125 340.969 181.656 340.969C171.625 340.969 161.922 338.344 152.547 333.094C139.609 325.688 129.484 314.672 122.172 300.047ZM291.062 234.234C291.156 233.672 291.203 233.109 291.203 232.547C292.516 222.703 296.359 217.781 302.734 217.781C303.766 217.781 304.797 217.875 305.828 218.062C310.141 219.094 312.297 223.172 312.297 230.297C312.297 232.078 312.062 235.312 311.594 240C318.719 226.688 328.891 219.984 342.109 219.891C346.703 219.891 350.969 221.297 354.906 224.109C360.625 228.328 363.484 233.859 363.484 240.703C363.484 241.828 363.438 244.547 363.344 248.859C363.25 258.328 363.203 265.922 363.203 271.641C363.203 290.672 363.766 301.875 364.891 305.25C365.172 306.094 365.453 306.984 365.734 307.922C368.453 314.953 372.156 318.469 376.844 318.469C377.781 318.469 378.766 318.375 379.797 318.188C382.516 317.531 386.5 315.328 391.75 311.578C396.906 307.828 401.031 305.953 404.125 305.953C405.344 305.953 406.516 306.328 407.641 307.078C410.547 308.859 412 311.625 412 315.375C412 315.656 411.953 316.031 411.859 316.5C411.203 321 407.312 325.641 400.188 330.422C391.469 336.328 382.797 339.281 374.172 339.281C367.141 339.281 361.188 337.359 356.312 333.516C346.281 325.453 341.266 307.781 341.266 280.5C341.266 278.906 341.312 276.328 341.406 272.766C341.594 267.609 341.688 263.156 341.688 259.406C341.594 249.469 340.469 244.266 338.312 243.797C337.938 243.797 337.469 243.891 336.906 244.078C331.562 245.859 324.766 256.406 316.516 275.719C309.391 292.5 304.797 306.656 302.734 318.188L301.469 325.641C300.906 328.922 300.391 332.297 299.922 335.766C294.953 368.297 291.625 395.531 289.938 417.469C289.656 420.844 288.719 423.891 287.125 426.609C284.406 431.203 280.984 433.5 276.859 433.5C274.797 433.5 272.922 432.844 271.234 431.531C268.141 429 266.594 425.344 266.594 420.562C266.594 419.25 274.75 357.141 291.062 234.234Z" fill="#E9B171"/>
</g>
<defs>
<clipPath id="clip0_210_129">
<rect width="512" height="512" fill="white"/>
</clipPath>
</defs>
</svg>
